<svg xmlns="http://www.w3.org/2000/svg" width="33.313" height="29.982" viewBox="0 0 33.313 29.982">
  <g id="layer1" transform="translate(0 -1)">
    <path id="Path_1" data-name="Path 1" d="M10.827,1A10.827,10.827,0,1,0,21.654,11.827,10.827,10.827,0,0,0,10.827,1Zm0,1.666a9.161,9.161,0,1,1-9.161,9.161,9.161,9.161,0,0,1,9.161-9.161ZM9.994,6V7.663a2.5,2.5,0,1,0,0,5H11.66a.833.833,0,0,1,0,1.666H7.5v1.666h2.5v1.666H11.66V15.991a2.5,2.5,0,1,0,0-5H9.994a.833.833,0,0,1,0-1.666h4.164V7.663h-2.5V6ZM23.072,9.358a12.474,12.474,0,0,1,.208,1.679,9.157,9.157,0,1,1-9.168,12.828,12.387,12.387,0,0,1-1.662.338A10.822,10.822,0,1,0,23.072,9.358Zm0,4.968a12.4,12.4,0,0,1-1.207,3.331h3.956V15.991h-2.5V14.325Zm-2.05,4.695a12.624,12.624,0,0,1-1.057,1.292,2.481,2.481,0,0,0,1.692.677h1.666a.833.833,0,0,1,0,1.666H19.155v1.666h2.5v1.666h1.666V24.319a2.5,2.5,0,1,0,0-5H21.654A.815.815,0,0,1,21.019,19.02Z" transform="translate(0 0)" fill="#a69571"/>
  </g>
</svg>
