<svg xmlns="http://www.w3.org/2000/svg" width="23.449" height="29.306" viewBox="0 0 23.449 29.306">
  <g id="Group_8" data-name="Group 8" transform="translate(-790 -417.686)">
    <path id="Path_2" data-name="Path 2" d="M58.664,43.222a7.422,7.422,0,1,0-7.816,7.4v9.582l-3-3.006a.395.395,0,0,0-.557.558l3.676,3.674h0a.393.393,0,0,0,.553,0h0l3.676-3.674a.395.395,0,0,0-.557-.558l-3,3V50.62A7.421,7.421,0,0,0,58.664,43.222Zm-14.056,0a6.634,6.634,0,1,1,6.634,6.634A6.634,6.634,0,0,1,44.608,43.222Z" transform="translate(746.18 381.885)" fill="#fff"/>
    <path id="Path_3" data-name="Path 3" d="M123,78.016v-.674a2.387,2.387,0,0,0,1.906-1.8c.109-.545.118-1.908-2.158-2.785-1.209-.466-1.817-1.157-1.67-1.9a1.594,1.594,0,0,1,1.516-1.2c1.324.036,1.564.839,1.572.865a.394.394,0,1,0,.765-.189A2.15,2.15,0,0,0,123,68.907v-.683a.394.394,0,0,0-.788,0V68.9a2.367,2.367,0,0,0-1.906,1.8c-.109.546-.117,1.908,2.159,2.784,1.209.466,1.817,1.158,1.67,1.9a1.648,1.648,0,0,1-1.517,1.2c-1.315-.036-1.561-.83-1.574-.872a.4.4,0,0,0-.476-.283.393.393,0,0,0-.287.477,2.149,2.149,0,0,0,1.93,1.422v.686a.394.394,0,0,0,.788,0Z" transform="translate(674.814 351.987)" fill="#fff"/>
    <path id="Path_4" data-name="Path 4" d="M259.757,247a4.684,4.684,0,0,0-.371,9.354.4.4,0,0,0-.023.113v4.44l-1.145-1.145a.394.394,0,0,0-.557.558l1.817,1.817.126.084a.391.391,0,0,0,.432-.086l1.816-1.816a.394.394,0,0,0-.557-.556l-1.145,1.145v-4.44a.381.381,0,0,0-.023-.113,4.684,4.684,0,0,0-.371-9.354Zm0,8.605a3.909,3.909,0,1,1,3.909-3.909,3.909,3.909,0,0,1-3.909,3.909Z" transform="translate(548.996 184.739)" fill="#fff"/>
  </g>
</svg>
