<svg xmlns="http://www.w3.org/2000/svg" width="26.901" height="33.62" viewBox="0 0 26.901 33.62">
  <g id="_7091282_money_decrease_down_trade_war_business_war_icon" data-name="7091282_money_decrease_down_trade war_business war_icon" transform="translate(-43.82 -35.8)">
    <path id="Path_2" data-name="Path 2" d="M60.85,44.315a8.515,8.515,0,1,0-8.967,8.491V63.8L48.438,60.35a.453.453,0,0,0-.639.64l4.217,4.215h0a.45.45,0,0,0,.634,0h0l4.217-4.215a.453.453,0,0,0-.639-.64l-3.445,3.445V52.8A8.514,8.514,0,0,0,60.85,44.315Zm-16.126,0a7.611,7.611,0,1,1,7.611,7.611A7.611,7.611,0,0,1,44.724,44.315Z" transform="translate(0)" fill="#a69571"/>
    <path id="Path_3" data-name="Path 3" d="M123.4,79.516v-.773a2.738,2.738,0,0,0,2.186-2.07c.125-.625.135-2.189-2.476-3.195-1.387-.534-2.085-1.328-1.915-2.176a1.828,1.828,0,0,1,1.74-1.38c1.518.041,1.795.963,1.8.992a.452.452,0,1,0,.877-.217,2.466,2.466,0,0,0-2.214-1.631v-.784a.452.452,0,1,0-.9,0v.778a2.716,2.716,0,0,0-2.186,2.066c-.125.626-.134,2.189,2.476,3.194,1.387.534,2.085,1.328,1.915,2.176a1.89,1.89,0,0,1-1.741,1.381c-1.508-.041-1.791-.952-1.805-1a.458.458,0,0,0-.546-.325.451.451,0,0,0-.329.547,2.465,2.465,0,0,0,2.214,1.631v.787a.452.452,0,0,0,.9,0Z" transform="translate(-70.617 -29.585)" fill="#a69571"/>
    <path id="Path_4" data-name="Path 4" d="M260.448,247a5.374,5.374,0,0,0-.426,10.732.457.457,0,0,0-.026.13v5.093l-1.314-1.314a.452.452,0,0,0-.639.64l2.085,2.085.145.1a.449.449,0,0,0,.5-.1l2.083-2.083a.452.452,0,0,0-.639-.638l-1.313,1.313v-5.094a.437.437,0,0,0-.027-.13A5.373,5.373,0,0,0,260.448,247Zm0,9.872a4.485,4.485,0,1,1,4.484-4.484,4.485,4.485,0,0,1-4.484,4.484Z" transform="translate(-195.114 -195.077)" fill="#a69571"/>
  </g>
</svg>
