<svg xmlns="http://www.w3.org/2000/svg" width="30.699" height="29.982" viewBox="0 0 30.699 29.982">
  <g id="Group_1" data-name="Group 1" transform="translate(-2.4 -5.3)">
    <path id="Path_5" data-name="Path 5" d="M83.828,127.12a9.727,9.727,0,0,0,1.723,1.026L86,129.71h2.309l.171-.648h1.6l.159.635h2.321l.611-2.138a4.01,4.01,0,0,0,1.026-3.47c-.024-.11-.049-.232-.073-.342a4.5,4.5,0,0,0-2.346-2.761,5.2,5.2,0,0,0-.855-.342,5.755,5.755,0,0,0-1.662-.244.623.623,0,0,0,0,1.246,4.214,4.214,0,0,1,1.3.2,4.26,4.26,0,0,1,.648.269,3.227,3.227,0,0,1,1.71,1.979,1.572,1.572,0,0,1,.049.232,2.761,2.761,0,0,1-.721,2.407,1.007,1.007,0,0,0-.269.464l-.367,1.271h-.428l-.159-.635-3.519-.012-.171.648h-.428l-.208-.733a1.136,1.136,0,0,0-.6-.7,7.957,7.957,0,0,1-1.454-.843v-1.417h.2l1.21-1.613a.643.643,0,0,0,.037-.7l-.061-.159a1.234,1.234,0,0,0-.086-.183.359.359,0,0,1,.1.049,2.88,2.88,0,0,1,.305.183,1.762,1.762,0,0,1,.513.611.62.62,0,1,0,1.112-.55,3.014,3.014,0,0,0-.867-1.051,3.925,3.925,0,0,0-.476-.293h0a2.058,2.058,0,0,0-.342-.147,2.921,2.921,0,0,0-.941-.159h-.171a.458.458,0,0,0-.122.012H84.9l-.086.049a.726.726,0,0,0-.428.44.82.82,0,0,0,.024.586,1.08,1.08,0,0,0,.122.232c.086.147.159.305.232.464a.529.529,0,0,1,.061.147l-.635.843-.794.012v2.737A1.134,1.134,0,0,0,83.828,127.12Z" transform="translate(-71.104 -101.037)" fill="#fff"/>
    <path id="Path_6" data-name="Path 6" d="M33.079,34.085l-.4-2.382a1.109,1.109,0,0,0-1.075-.855H29.425V17.212H32.9V13.461L17.806,5.3,2.6,13.461v3.751H6.078V30.835H3.891a1.115,1.115,0,0,0-1.075.892L2.424,34.06A.791.791,0,0,0,2.4,34.3a.983.983,0,0,0,.99.977H32.126a1.669,1.669,0,0,0,.232-.024.932.932,0,0,0,.6-.452A1,1,0,0,0,33.079,34.085ZM3.829,15.978V14.207L17.806,6.717l13.855,7.489v1.772Zm24.35,1.234V30.835H7.311V17.212ZM3.683,34.036l.33-1.967H31.478l.33,1.967Z" fill="#fff"/>
  </g>
</svg>
