<svg xmlns="http://www.w3.org/2000/svg" width="30.699" height="29.982" viewBox="0 0 30.699 29.982">
  <path id="Path_6" data-name="Path 6" d="M33.079,34.085l-.4-2.382a1.109,1.109,0,0,0-1.075-.855H29.425V17.212H32.9V13.461L17.806,5.3,2.6,13.461v3.751H6.078V30.835H3.891a1.115,1.115,0,0,0-1.075.892L2.424,34.06A.791.791,0,0,0,2.4,34.3a.983.983,0,0,0,.99.977H32.126a1.669,1.669,0,0,0,.232-.024.932.932,0,0,0,.6-.452A1,1,0,0,0,33.079,34.085ZM3.829,15.978V14.207L17.806,6.717l13.855,7.489v1.772Zm24.35,1.234V30.835H7.311V17.212ZM3.683,34.036l.33-1.967H31.478l.33,1.967Z" transform="translate(-2.4 -5.3)" fill="#fff"/>
</svg>
